HIERARCHY
ROOT Hips
{
	OFFSET 0.000000 121.760803 0.000000
	CHANNELS 6 Xposition Yposition Zposition Xrotation Yrotation Zrotation 
	JOINT Spine
	{
		OFFSET 0.072000 7.257294 -0.789700
		CHANNELS 3 Xrotation Yrotation Zrotation
		JOINT Spine1
		{
			OFFSET 0.000000 12.508769 -0.658067
			CHANNELS 3 Xrotation Yrotation Zrotation
			JOINT Spine1_split
			{
				OFFSET 0.000000 12.508769 -0.658067
				CHANNELS 3 Xrotation Yrotation Zrotation
				JOINT Spine2
				{
					OFFSET 0.000000 12.508769 -0.658067
					CHANNELS 3 Xrotation Yrotation Zrotation
					JOINT Neck
					{
						OFFSET 0.000000 14.033295 7.520400
						CHANNELS 3 Xrotation Yrotation Zrotation
						JOINT Head
						{
							OFFSET 0.000000 8.198502 5.703100
							CHANNELS 3 Xrotation Yrotation Zrotation
							JOINT HeadTop_End
							{
								OFFSET 0.000000 17.760803 13.332701
								CHANNELS 3 Xrotation Yrotation Zrotation
								End Site
								{
									OFFSET 0.000000 0.000000 0.000000
								}
							}
						}
					}
					JOINT LeftShoulder
					{
						OFFSET 6.292450 5.785301 -0.669000
						CHANNELS 3 Xrotation Yrotation Zrotation
						JOINT LeftShoulder_split
						{
							OFFSET 6.292450 5.785301 -0.669000
							CHANNELS 3 Xrotation Yrotation Zrotation
							JOINT LeftArm
							{
								OFFSET 13.907140 -6.093903 1.965100
								CHANNELS 3 Xrotation Yrotation Zrotation
								JOINT LeftForeArm
								{
									OFFSET 34.140198 0.000000 0.000000
									CHANNELS 3 Xrotation Yrotation Zrotation
									JOINT LeftHand
									{
										OFFSET 40.960209 0.000000 0.000000
										CHANNELS 3 Xrotation Yrotation Zrotation
										JOINT LeftHandThumb1
										{
											OFFSET 10.006996 -7.170425 9.573125
											CHANNELS 3 Xrotation Yrotation Zrotation
											JOINT LeftHandThumb2
											{
												OFFSET 1.835007 -1.059448 1.059443
												CHANNELS 3 Xrotation Yrotation Zrotation
												JOINT LeftHandThumb3
												{
													OFFSET 2.112267 -1.219513 1.219518
													CHANNELS 3 Xrotation Yrotation Zrotation
													JOINT LeftHandThumb4
													{
														OFFSET 4.843811 -2.796570 2.796576
														CHANNELS 3 Xrotation Yrotation Zrotation
														End Site
														{
															OFFSET 0.000000 0.000000 0.000000
														}
													}
												}
											}
										}
										JOINT LeftHandIndex1
										{
											OFFSET 18.389847 -0.922348 4.596882
											CHANNELS 3 Xrotation Yrotation Zrotation
											JOINT LeftHandIndex2
											{
												OFFSET 4.711273 0.000000 0.000000
												CHANNELS 3 Xrotation Yrotation Zrotation
												JOINT LeftHandIndex3
												{
													OFFSET 2.886131 0.000000 0.000000
													CHANNELS 3 Xrotation Yrotation Zrotation
													JOINT LeftHandIndex4
													{
														OFFSET 6.145912 0.000000 0.000000
														CHANNELS 3 Xrotation Yrotation Zrotation
														End Site
														{
															OFFSET 0.000000 0.000000 0.000000
														}
													}
												}
											}
										}
										JOINT LeftHandMiddle1
										{
											OFFSET 18.013008 0.000000 0.000000
											CHANNELS 3 Xrotation Yrotation Zrotation
											JOINT LeftHandMiddle2
											{
												OFFSET 4.946693 0.000000 0.000000
												CHANNELS 3 Xrotation Yrotation Zrotation
												JOINT LeftHandMiddle3
												{
													OFFSET 3.342232 0.000000 0.000000
													CHANNELS 3 Xrotation Yrotation Zrotation
													JOINT LeftHandMiddle4
													{
														OFFSET 4.461754 0.000000 0.000000
														CHANNELS 3 Xrotation Yrotation Zrotation
														End Site
														{
															OFFSET 0.000000 0.000000 0.000000
														}
													}
												}
											}
										}
										JOINT LeftHandRing1
										{
											OFFSET 15.849892 -0.102921 -4.126150
											CHANNELS 3 Xrotation Yrotation Zrotation
											JOINT LeftHandRing2
											{
												OFFSET 3.527054 0.000000 0.000000
												CHANNELS 3 Xrotation Yrotation Zrotation
												JOINT LeftHandRing3
												{
													OFFSET 2.961098 0.000000 0.000000
													CHANNELS 3 Xrotation Yrotation Zrotation
													JOINT LeftHandRing4
													{
														OFFSET 4.927200 0.000000 0.000000
														CHANNELS 3 Xrotation Yrotation Zrotation
														End Site
														{
															OFFSET 0.000000 0.000000 0.000000
														}
													}
												}
											}
										}
										JOINT LeftHandPinky1
										{
											OFFSET 12.791824 -0.832031 -6.799156
											CHANNELS 3 Xrotation Yrotation Zrotation
											JOINT LeftHandPinky2
											{
												OFFSET 3.327133 0.000000 0.000000
												CHANNELS 3 Xrotation Yrotation Zrotation
												JOINT LeftHandPinky3
												{
													OFFSET 3.014900 0.000000 0.000000
													CHANNELS 3 Xrotation Yrotation Zrotation
													JOINT LeftHandPinky4
													{
														OFFSET 5.847786 0.000000 0.000000
														CHANNELS 3 Xrotation Yrotation Zrotation
														End Site
														{
															OFFSET 0.000000 0.000000 0.000000
														}
													}
												}
											}
										}
									}
								}
							}
						}
					}
					JOINT RightShoulder
					{
						OFFSET -6.292450 5.785301 -0.669000
						CHANNELS 3 Xrotation Yrotation Zrotation
						JOINT RightShoulder_split
						{
							OFFSET -6.292450 5.785301 -0.669000
							CHANNELS 3 Xrotation Yrotation Zrotation
							JOINT RightArm
							{
								OFFSET -13.907140 -6.093903 1.965100
								CHANNELS 3 Xrotation Yrotation Zrotation
								JOINT RightForeArm
								{
									OFFSET -34.140198 0.000000 0.000000
									CHANNELS 3 Xrotation Yrotation Zrotation
									JOINT RightHand
									{
										OFFSET -40.960209 0.000000 0.000000
										CHANNELS 3 Xrotation Yrotation Zrotation
										JOINT RightHandThumb1
										{
											OFFSET -10.007050 -7.170456 9.573117
											CHANNELS 3 Xrotation Yrotation Zrotation
											JOINT RightHandThumb2
											{
												OFFSET -1.835007 -1.059448 1.059443
												CHANNELS 3 Xrotation Yrotation Zrotation
												JOINT RightHandThumb3
												{
													OFFSET -2.112267 -1.219513 1.219518
													CHANNELS 3 Xrotation Yrotation Zrotation
													JOINT RightHandThumb4
													{
														OFFSET -4.843834 -2.796585 2.796590
														CHANNELS 3 Xrotation Yrotation Zrotation
														End Site
														{
															OFFSET 0.000000 0.000000 0.000000
														}
													}
												}
											}
										}
										JOINT RightHandIndex1
										{
											OFFSET -18.389870 -0.922424 4.596786
											CHANNELS 3 Xrotation Yrotation Zrotation
											JOINT RightHandIndex2
											{
												OFFSET -4.711273 0.000000 0.000000
												CHANNELS 3 Xrotation Yrotation Zrotation
												JOINT RightHandIndex3
												{
													OFFSET -2.886131 0.000000 0.000000
													CHANNELS 3 Xrotation Yrotation Zrotation
													JOINT RightHandIndex4
													{
														OFFSET -6.145920 0.000000 0.000000
														CHANNELS 3 Xrotation Yrotation Zrotation
														End Site
														{
															OFFSET 0.000000 0.000000 0.000000
														}
													}
												}
											}
										}
										JOINT RightHandMiddle1
										{
											OFFSET -18.013008 0.000000 0.000000
											CHANNELS 3 Xrotation Yrotation Zrotation
											JOINT RightHandMiddle2
											{
												OFFSET -4.946693 0.000000 0.000000
												CHANNELS 3 Xrotation Yrotation Zrotation
												JOINT RightHandMiddle3
												{
													OFFSET -3.342232 0.000000 0.000000
													CHANNELS 3 Xrotation Yrotation Zrotation
													JOINT RightHandMiddle4
													{
														OFFSET -4.461754 0.000000 0.000000
														CHANNELS 3 Xrotation Yrotation Zrotation
														End Site
														{
															OFFSET 0.000000 0.000000 0.000000
														}
													}
												}
											}
										}
										JOINT RightHandRing1
										{
											OFFSET -15.849876 -0.102936 -4.126237
											CHANNELS 3 Xrotation Yrotation Zrotation
											JOINT RightHandRing2
											{
												OFFSET -3.527054 0.000000 0.000000
												CHANNELS 3 Xrotation Yrotation Zrotation
												JOINT RightHandRing3
												{
													OFFSET -2.961098 0.000000 0.000000
													CHANNELS 3 Xrotation Yrotation Zrotation
													JOINT RightHandRing4
													{
														OFFSET -4.927200 0.000000 0.000000
														CHANNELS 3 Xrotation Yrotation Zrotation
														End Site
														{
															OFFSET 0.000000 0.000000 0.000000
														}
													}
												}
											}
										}
										JOINT RightHandPinky1
										{
											OFFSET -12.791786 -0.832077 -6.799222
											CHANNELS 3 Xrotation Yrotation Zrotation
											JOINT RightHandPinky2
											{
												OFFSET -3.327133 0.000000 0.000000
												CHANNELS 3 Xrotation Yrotation Zrotation
												JOINT RightHandPinky3
												{
													OFFSET -3.014900 0.000000 0.000000
													CHANNELS 3 Xrotation Yrotation Zrotation
													JOINT RightHandPinky4
													{
														OFFSET -5.847786 0.000000 0.000000
														CHANNELS 3 Xrotation Yrotation Zrotation
														End Site
														{
															OFFSET 0.000000 0.000000 0.000000
														}
													}
												}
											}
										}
									}
								}
							}
						}
					}
				}
			}
		}
	}
	JOINT LeftUpLeg
	{
		OFFSET 13.026900 -6.336304 -1.092800
		CHANNELS 3 Xrotation Yrotation Zrotation
		JOINT LeftLeg
		{
			OFFSET 0.524474 -46.096886 9.782700
			CHANNELS 3 Xrotation Yrotation Zrotation
			JOINT LeftFoot
			{
				OFFSET -0.524474 -53.427422 -12.948200
				CHANNELS 3 Xrotation Yrotation Zrotation
				JOINT LeftToeBase
				{
					OFFSET 0.192200 -14.009700 16.364100
					CHANNELS 3 Xrotation Yrotation Zrotation
					JOINT LeftToe_End
					{
						OFFSET -1.784700 -0.561700 9.474800
						CHANNELS 3 Xrotation Yrotation Zrotation
						End Site
						{
							OFFSET 0.000000 0.000000 0.000000
						}
					}
				}
			}
		}
	}
	JOINT RightUpLeg
	{
		OFFSET -12.883000 -6.336304 -1.092800
		CHANNELS 3 Xrotation Yrotation Zrotation
		JOINT RightLeg
		{
			OFFSET -0.524587 -46.096825 9.782800
			CHANNELS 3 Xrotation Yrotation Zrotation
			JOINT RightFoot
			{
				OFFSET 0.524587 -53.427383 -12.948300
				CHANNELS 3 Xrotation Yrotation Zrotation
				JOINT RightToeBase
				{
					OFFSET -0.192200 -14.009700 16.364100
					CHANNELS 3 Xrotation Yrotation Zrotation
					JOINT RightToe_End
					{
						OFFSET 1.784700 -0.561700 9.474800
						CHANNELS 3 Xrotation Yrotation Zrotation
						End Site
						{
							OFFSET 0.000000 0.000000 0.000000
						}
					}
				}
			}
		}
	}
}
MOTION
Frames: 4
Frame Time: 0.016667
4.190840 101.820076 0.373071 7.705885 -10.641523 1.355984 7.612715 1.817546 -2.245967 6.431361 1.228089 -0.932161 0.000000 0.000000 0.000000 6.450700 1.172316 -0.845380 -3.222588 -0.333306 -1.041939 -12.897089 -4.165311 4.309513 -0.000000 -0.000001 0.000000 5.349781 -35.475917 4.326031 0.000000 0.000000 0.000000 -77.161200 -31.121333 -22.573234 0.000006 -27.636911 0.000004 -131.009845 7.371628 18.178620 39.578720 -17.197330 -21.086423 11.236015 23.988434 2.901696 3.118799 9.521011 4.222321 0.000000 -0.000001 0.000001 3.600014 6.051853 -61.463479 4.128155 6.308908 -66.366175 1.118807 3.767447 -33.069314 -0.000002 0.000000 -0.000000 2.451424 5.270994 -49.859930 3.793768 6.152673 -63.285944 1.517085 4.316416 -38.714841 0.000000 -0.000000 0.000002 2.452894 5.272244 -49.876049 3.792044 6.151804 -63.269791 1.517080 4.316419 -38.714844 -0.000001 0.000000 -0.000000 7.187308 7.991513 -61.391769 4.144322 2.228349 -66.583211 1.118814 3.767475 -33.069303 -0.000001 0.000001 -0.000000 3.654526 31.100437 -18.637126 0.000000 0.000000 0.000000 -34.428976 31.033087 9.535798 0.000001 29.388262 0.000001 8.244903 12.377333 -3.343645 29.376449 16.962628 20.541335 9.559520 -25.704486 -5.659323 1.488513 -8.233518 -5.339835 -0.000001 -0.000001 -0.000001 2.155495 -5.036560 46.317149 4.033402 -6.309979 65.142895 1.089722 -3.742293 32.460252 0.000000 -0.000001 -0.000000 1.448245 -4.252507 37.599696 3.476829 -6.022578 59.964785 1.448456 -4.252769 37.602886 0.000000 -0.000000 -0.000004 1.448238 -4.252499 37.599693 3.476831 -6.022592 59.964785 1.448464 -4.252772 37.602900 0.000000 -0.000001 -0.000002 2.155501 -5.036555 46.317149 4.033397 -6.309981 65.142888 1.089721 -3.742294 32.460249 -0.000000 0.000000 -0.000000 -50.948775 3.827942 19.622228 40.274969 5.228378 4.966038 6.583297 0.063504 -16.042279 -1.160272 -0.000000 0.000004 0.000000 -0.000000 0.000000 -28.257032 -2.375846 -29.907944 35.483615 -1.502853 -1.548135 -8.489144 -4.016117 28.230224 -0.271498 0.000043 0.000002 -0.000000 0.000002 0.000000 
4.344213 101.608482 0.464621 7.779402 -10.236117 1.115744 7.617289 1.687066 -2.293175 6.424120 1.146838 -0.979022 0.000000 0.000000 0.000000 6.443374 1.089224 -0.899068 -3.752341 -0.436695 -0.755376 -12.941246 -4.384517 4.621762 0.000000 0.000001 0.000000 5.326297 -35.461024 4.512441 0.000000 0.000000 0.000000 -76.482109 -31.696917 -21.754421 -0.000012 -27.909739 0.000013 -131.195489 7.258891 17.612970 39.578720 -17.197335 -21.086425 11.236015 23.988434 2.901699 3.118800 9.521009 4.222324 -0.000002 0.000001 -0.000000 3.600014 6.051852 -61.463479 4.128157 6.308910 -66.366175 1.118805 3.767446 -33.069310 -0.000001 0.000001 -0.000001 2.451424 5.270993 -49.859927 3.793771 6.152677 -63.285944 1.517083 4.316413 -38.714844 0.000001 0.000001 -0.000001 2.452894 5.272240 -49.876056 3.792045 6.151804 -63.269798 1.517079 4.316419 -38.714844 -0.000001 0.000000 -0.000002 7.187310 7.991512 -61.391769 4.144321 2.228347 -66.583211 1.118817 3.767475 -33.069303 -0.000001 0.000000 0.000002 3.490725 30.381330 -18.452919 0.000000 0.000000 0.000000 -35.039929 31.378084 10.047774 0.000003 29.551555 -0.000001 7.728502 12.424328 -3.658105 29.376442 16.962631 20.541331 9.559521 -25.704485 -5.659320 1.488516 -8.233517 -5.339834 -0.000001 0.000000 0.000000 2.155494 -5.036558 46.317149 4.033403 -6.309979 65.142895 1.089720 -3.742294 32.460245 -0.000001 -0.000001 -0.000001 1.448245 -4.252504 37.599696 3.476828 -6.022578 59.964778 1.448456 -4.252770 37.602886 -0.000000 0.000000 -0.000001 1.448238 -4.252497 37.599696 3.476829 -6.022592 59.964778 1.448464 -4.252773 37.602900 0.000000 0.000001 0.000001 2.155501 -5.036553 46.317149 4.033394 -6.309980 65.142888 1.089724 -3.742294 32.460242 -0.000001 -0.000002 0.000000 -51.448584 3.496826 19.645683 40.838101 4.947527 4.745609 6.323126 0.108317 -15.792297 -1.105312 -0.000003 0.000002 0.000000 0.000000 -0.000000 -28.223930 -2.681170 -29.930872 35.619016 -1.586564 -1.576177 -8.709586 -4.094928 28.357603 -0.225713 -0.000015 0.000005 -0.000000 0.000000 0.000000 
4.514434 101.364540 0.578611 7.727761 -9.894464 0.987183 7.635232 1.590428 -2.351862 6.433796 1.091084 -1.028594 0.000000 0.000000 0.000000 6.452321 1.034178 -0.954309 -4.162269 -0.548713 -0.475729 -12.750507 -4.641916 4.905307 0.000001 -0.000000 0.000000 5.318310 -35.463701 4.617414 0.000000 0.000000 0.000000 -75.973171 -32.528083 -21.224051 -0.000000 -27.688192 0.000008 -131.101738 6.992720 16.947905 39.578720 -17.197334 -21.086423 11.236016 23.988434 2.901698 3.118801 9.521009 4.222325 -0.000002 -0.000001 0.000000 3.600014 6.051853 -61.463479 4.128156 6.308907 -66.366175 1.118809 3.767447 -33.069310 -0.000002 -0.000001 0.000002 2.451424 5.270996 -49.859927 3.793770 6.152677 -63.285944 1.517085 4.316415 -38.714844 -0.000002 -0.000000 0.000002 2.452894 5.272242 -49.876046 3.792042 6.151805 -63.269791 1.517081 4.316417 -38.714844 0.000001 -0.000000 -0.000001 7.187309 7.991515 -61.391769 4.144319 2.228351 -66.583211 1.118817 3.767474 -33.069307 0.000000 0.000001 -0.000003 3.343510 29.595681 -18.253983 0.000000 0.000000 0.000000 -35.737609 31.911300 10.742126 0.000004 29.323395 -0.000001 7.359823 12.604435 -3.966194 29.376446 16.962628 20.541331 9.559523 -25.704485 -5.659321 1.488512 -8.233518 -5.339834 0.000002 -0.000000 -0.000000 2.155494 -5.036559 46.317152 4.033406 -6.309978 65.142895 1.089721 -3.742293 32.460249 -0.000000 -0.000000 0.000002 1.448245 -4.252504 37.599693 3.476829 -6.022579 59.964778 1.448456 -4.252770 37.602886 0.000001 0.000003 0.000000 1.448237 -4.252500 37.599696 3.476828 -6.022592 59.964785 1.448464 -4.252774 37.602900 0.000000 0.000001 0.000001 2.155501 -5.036555 46.317149 4.033395 -6.309980 65.142902 1.089723 -3.742293 32.460242 -0.000001 -0.000001 -0.000002 -51.815929 3.275863 19.539909 41.453449 4.733907 4.634478 6.048363 0.151764 -15.609714 -1.081818 0.000002 -0.000001 -0.000000 -0.000000 0.000000 -28.126149 -2.875681 -30.114376 35.845594 -1.604328 -1.562911 -8.974124 -4.182823 28.459431 -0.183032 -0.000003 0.000007 0.000000 0.000004 -0.000000 
4.686660 101.119202 0.696400 7.608606 -9.746719 0.964682 7.668021 1.528888 -2.420711 6.458410 1.059676 -1.078916 0.000000 0.000000 0.000000 6.476068 1.004668 -1.008483 -4.451143 -0.648958 -0.252693 -12.418157 -4.890462 5.127133 0.000001 0.000000 0.000000 5.324664 -35.494465 4.670774 0.000000 0.000000 0.000000 -75.597736 -33.466544 -20.902962 0.000004 -27.148723 0.000006 -130.986554 6.692531 16.411319 39.578720 -17.197335 -21.086425 11.236018 23.988434 2.901695 3.118795 9.521009 4.222325 -0.000002 0.000000 -0.000001 3.600013 6.051852 -61.463479 4.128154 6.308909 -66.366182 1.118810 3.767447 -33.069310 0.000001 0.000000 0.000001 2.451424 5.270994 -49.859927 3.793768 6.152676 -63.285937 1.517084 4.316414 -38.714837 -0.000000 0.000000 -0.000002 2.452894 5.272240 -49.876049 3.792046 6.151805 -63.269798 1.517081 4.316419 -38.714841 -0.000002 0.000000 -0.000000 7.187310 7.991513 -61.391769 4.144321 2.228349 -66.583218 1.118819 3.767475 -33.069307 0.000001 0.000000 -0.000001 3.228994 28.899350 -18.100978 0.000000 0.000000 0.000000 -36.415246 32.483065 11.481571 0.000002 28.812644 -0.000000 7.126548 12.795571 -4.183793 29.376439 16.962631 20.541333 9.559519 -25.704486 -5.659319 1.488513 -8.233518 -5.339835 0.000001 0.000000 -0.000000 2.155494 -5.036559 46.317152 4.033403 -6.309979 65.142895 1.089721 -3.742292 32.460249 -0.000000 -0.000001 0.000002 1.448245 -4.252504 37.599696 3.476830 -6.022577 59.964785 1.448456 -4.252769 37.602889 -0.000000 -0.000000 -0.000002 1.448238 -4.252499 37.599696 3.476828 -6.022591 59.964778 1.448464 -4.252775 37.602900 -0.000001 0.000001 -0.000003 2.155501 -5.036553 46.317149 4.033396 -6.309980 65.142895 1.089722 -3.742293 32.460249 -0.000000 0.000002 0.000005 -52.126979 3.381165 19.398156 42.060930 4.505818 4.756557 5.775763 0.188727 -15.501905 -1.090901 0.000003 0.000002 0.000000 0.000001 -0.000000 -28.033536 -2.872810 -30.336692 36.111975 -1.572307 -1.560915 -9.205561 -4.262235 28.560781 -0.161690 0.000008 0.000010 -0.000000 -0.000002 0.000000 
